<?xml version="1.0" encoding="UTF-8"?>
<!DOCTYPE svg PUBLIC "-//W3C//DTD SVG 1.1//EN" "http://www.w3.org/Graphics/SVG/1.1/DTD/svg11.dtd">
<!-- Creator: CorelDRAW 2018 (64-Bit) -->
<svg xmlns="http://www.w3.org/2000/svg" xml:space="preserve" width="186.7mm" height="138.729mm" version="1.1" style="shape-rendering:geometricPrecision; text-rendering:geometricPrecision; image-rendering:optimizeQuality; fill-rule:evenodd; clip-rule:evenodd"
viewBox="0 0 18669.96 13872.95"
 xmlns:xlink="http://www.w3.org/1999/xlink">
 <defs>
  <style type="text/css">
   <![CDATA[
    .fil0 {fill:#4C34FB}
    .fil1 {fill:#0F073F;fill-rule:nonzero}
   ]]>
  </style>
 </defs>
 <g id="Layer_x0020_1">
  <metadata id="CorelCorpID_0Corel-Layer"/>
  <g id="_1991285596704">
   <polygon class="fil0" points="5820.18,6000 5334.97,5000 7908.93,0 10908.94,0 7305.38,7000 11305.39,7000 11820.19,6000 8820.18,6000 9334.98,5000 13334.98,5000 11790.6,8000 5790.59,8000 9394.15,1000 8394.14,1000 "/>
   <g>
    <polygon class="fil1" points="966.16,13093.24 2254.37,13093.24 2254.37,13833.4 -0,13833.4 -0,9838.81 966.16,9838.81 "/>
    <path class="fil1" d="M5175.44 13104.54l-1497.26 0 -248.6 728.86 -1017.01 0 1463.36 -3966.34 1113.06 0 1463.37 3966.34 -1028.31 0 -248.61 -728.86zm-248.6 -734.5l-497.2 -1469.02 -502.86 1469.02 1000.06 0z"/>
    <polygon class="fil1" points="9318.3,9838.81 7934.04,12505.64 7934.04,13833.4 6962.23,13833.4 6962.23,12505.64 5577.97,9838.81 6685.38,9838.81 7453.79,11466.03 8222.19,9838.81 "/>
    <polygon class="fil1" points="10541.72,10607.22 10541.72,11443.43 11892.08,11443.43 11892.08,12172.29 10541.72,12172.29 10541.72,13059.34 12061.58,13059.34 12061.58,13833.4 9575.56,13833.4 9575.56,9838.81 12061.58,9838.81 12061.58,10607.22 "/>
    <path class="fil1" d="M14396.03 13833.4l-864.46 -1508.56 -220.35 0 0 1508.56 -966.16 0 0 -3994.59 1649.82 0c316.4,0 583.84,54.62 802.3,163.86 218.47,109.23 382.32,258.96 491.56,449.18 109.23,190.21 163.85,407.74 163.85,652.58 0,290.03 -80.04,536.75 -240.13,740.15 -160.08,203.4 -392.68,342.77 -697.78,418.11l949.21 1570.71 -1067.86 0zm-1084.81 -2169.62l598.91 0c192.1,0 333.35,-42.37 423.75,-127.13 90.4,-84.75 135.6,-209.99 135.6,-375.72 0,-158.21 -46.14,-282.51 -138.42,-372.91 -92.29,-90.4 -232.6,-135.6 -420.93,-135.6l-598.91 0 0 1011.36z"/>
    <path class="fil1" d="M18669.96 12709.04c0,210.94 -53.68,404.92 -161.03,581.96 -107.35,177.03 -265.55,318.28 -474.6,423.75 -209.05,105.47 -462.36,158.2 -759.93,158.2 -448.24,0 -817.38,-109.23 -1107.41,-327.7 -290.04,-218.47 -448.24,-523.57 -474.61,-915.31l1028.31 0c15.07,150.67 68.74,269.32 161.03,355.95 92.28,86.64 209.99,129.95 353.13,129.95 124.3,0 222.23,-33.9 293.8,-101.7 71.57,-67.8 107.35,-158.2 107.35,-271.2 0,-101.7 -32.96,-186.45 -98.88,-254.25 -65.91,-67.8 -147.84,-123.36 -245.77,-166.68 -97.94,-43.32 -233.54,-95.11 -406.81,-155.37 -252.37,-86.64 -458.59,-170.45 -618.68,-251.43 -160.08,-80.99 -297.57,-201.52 -412.45,-361.61 -114.89,-160.08 -172.33,-368.19 -172.33,-624.33 0,-237.3 60.27,-442.58 180.8,-615.85 120.54,-173.27 287.21,-306.05 500.03,-398.33 212.82,-92.28 456.72,-138.43 731.68,-138.43 444.48,0 797.6,105.47 1059.39,316.41 261.78,210.93 409.63,500.97 443.53,870.1l-1045.26 0c-18.84,-131.83 -66.86,-236.36 -144.08,-313.57 -77.22,-77.22 -181.74,-115.83 -313.58,-115.83 -113,0 -204.34,30.13 -274.02,90.4 -69.69,60.27 -104.53,148.79 -104.53,265.55 0,94.17 31.08,174.21 93.23,240.13 62.15,65.92 140.31,119.59 234.47,161.03 94.17,41.43 229.77,94.16 406.81,158.2 256.13,86.63 465.19,172.33 627.15,257.08 161.97,84.75 301.34,208.11 418.11,370.07 116.76,161.97 175.15,372.91 175.15,632.81z"/>
   </g>
  </g>
 </g>
</svg>
