<?xml version="1.0" standalone="no"?>
<!DOCTYPE svg PUBLIC "-//W3C//DTD SVG 20010904//EN"
 "http://www.w3.org/TR/2001/REC-SVG-20010904/DTD/svg10.dtd">
<svg version="1.0" xmlns="http://www.w3.org/2000/svg"
 width="1920.000000pt" height="1080.000000pt" viewBox="0 0 1920.000000 1080.000000"
 preserveAspectRatio="xMidYMid meet">

<g transform="translate(0.000000,1080.000000) scale(0.100000,-0.100000)"
fill="#000000" stroke="none">
<path d="M6904 8385 l-24 -25 2 -377 c2 -208 7 -385 11 -394 6 -12 -278 -170
-1548 -859 l-1555 -843 2 -474 3 -475 1475 -804 c811 -443 1512 -825 1558
-850 l82 -45 0 550 0 551 -1086 543 -1086 543 523 252 c288 138 776 372 1084
520 l560 269 3 549 2 549 457 -3 c252 -1 461 -6 465 -10 5 -5 9 -1145 11
-2535 l2 -2526 23 -23 23 -23 389 0 389 0 23 23 23 23 5 2532 5 2532 145 0
145 0 5 -2532 5 -2532 23 -23 23 -23 394 0 c365 0 396 1 412 18 17 17 18 85
23 1280 l5 1262 640 6 c702 6 680 4 823 70 105 48 187 107 275 195 l68 68 -35
-94 c-19 -52 -266 -715 -550 -1472 -284 -758 -516 -1382 -516 -1388 0 -7 107
-9 322 -8 l323 3 880 2345 c484 1290 885 2357 892 2370 9 20 12 -72 13 -430
l1 -455 837 -410 c460 -225 947 -464 1082 -531 l245 -122 -630 -312 c-346
-172 -834 -413 -1082 -536 l-453 -223 0 -551 0 -552 56 31 c31 17 733 400
1560 852 l1504 823 0 467 0 468 -232 126 c-2047 1109 -2821 1532 -2825 1542
-3 6 45 145 106 308 61 162 111 300 111 305 0 6 -116 10 -324 10 l-324 0 -378
-1012 -379 -1012 -5 879 c-6 859 -6 882 -27 953 -87 301 -308 538 -591 637
-164 57 -63 55 -2304 55 l-2059 0 -25 -25z m4124 -1677 l2 -848 -565 0 -565 0
0 843 c0 464 3 847 7 850 3 4 257 6 562 5 l556 -3 3 -847z"/>
</g>
</svg>
