<?xml version="1.0" standalone="no"?>
<!DOCTYPE svg PUBLIC "-//W3C//DTD SVG 20010904//EN"
 "http://www.w3.org/TR/2001/REC-SVG-20010904/DTD/svg10.dtd">
<svg version="1.0" xmlns="http://www.w3.org/2000/svg"
 width="400.000000pt" height="225.000000pt" viewBox="0 0 400.000000 225.000000"
 preserveAspectRatio="xMidYMid meet">

<g transform="translate(0.000000,225.000000) scale(0.100000,-0.100000)"
fill="#000000" stroke="none">
<path d="M1434 1735 c-4 -8 -4 -49 -2 -90 2 -41 1 -75 -2 -75 -3 0 -149 -78
-325 -174 l-320 -174 -3 -94 -3 -93 325 -178 c179 -97 327 -177 330 -177 4 0
6 51 6 113 l0 113 -226 112 -225 112 188 91 c103 50 205 98 226 106 l37 15 0
114 0 114 100 0 100 0 0 -530 0 -531 88 3 87 3 3 528 2 527 30 0 30 0 0 -530
0 -530 90 0 90 0 0 265 0 265 129 0 c139 0 181 9 224 48 15 14 27 24 27 21 0
-2 -52 -139 -114 -304 -62 -165 -111 -303 -109 -307 2 -5 31 -8 64 -8 60 0 60
0 75 36 9 20 90 235 180 478 91 242 168 448 172 456 4 8 8 -26 10 -76 l3 -90
219 -109 c121 -60 220 -111 219 -114 0 -3 -99 -54 -220 -113 l-219 -108 0
-114 0 -115 68 37 c37 20 184 100 325 177 l257 140 0 97 0 97 -87 47 c-188
101 -548 297 -551 299 -2 1 6 27 18 56 29 79 29 79 -44 79 l-63 0 -66 -174
c-37 -96 -69 -186 -73 -201 -17 -67 -24 -23 -24 144 0 102 -5 192 -11 208 -15
42 -79 102 -119 113 -20 6 -217 10 -473 10 -380 0 -438 -2 -443 -15z m866
-340 l0 -175 -120 0 -120 0 0 175 0 175 120 0 120 0 0 -175z"/>
</g>
</svg>
